<svg xmlns="http://www.w3.org/2000/svg" viewBox="0 0 64 64">
  <path fill="#f48fb1" stroke="#ad1457" stroke-width="2" stroke-linejoin="round"
    d="M24 8c-5 0-8 3-9 6-4 1-7 4-7 8 0 2 .6 3.7 1.6 5C7 28.6 6 31 6 34c0 4 2.5 7 6 8.3.4 4.6 4 7.7 8.5 7.7 1.6 0 3.1-.4 4.4-1.2A8 8 0 0 0 32 52V12a8 8 0 0 0-8-4z"/>
  <path fill="#f8bbd0" stroke="#ad1457" stroke-width="2" stroke-linejoin="round"
    d="M40 8c5 0 8 3 9 6 4 1 7 4 7 8 0 2-.6 3.7-1.6 5C57 28.6 58 31 58 34c0 4-2.5 7-6 8.3-.4 4.6-4 7.7-8.5 7.7-1.6 0-3.1-.4-4.4-1.2A8 8 0 0 1 32 52V12a8 8 0 0 1 8-4z"/>
  <path fill="none" stroke="#ad1457" stroke-width="2" stroke-linecap="round"
    d="M24 16c-3 1-4 3-4 5m18-5c3 1 4 3 4 5M20 30c-2 1-3 3-3 5m30-5c2 1 3 3 3 5M26 42c-2 .5-3 2-3 4m18-4c2 .5 3 2 3 4"/>
</svg>
